<svg width="209" height="25" viewBox="0 0 209 25" fill="none" xmlns="http://www.w3.org/2000/svg">
<path d="M0 19.8271C0.387533 22.2028 2.44929 24.016 4.93455 24.016H10.0103C9.96011 23.3559 9.93455 22.6889 9.93455 22.016C9.93455 12.7529 14.7786 4.62125 22.0718 0.0159912H7.43674C3.15049 5.56006 0.446099 12.3892 0 19.8271Z" fill="#1C61E7"/>
<path d="M34.9526 2.03968C24.363 2.55165 15.9345 11.2995 15.9345 22.016C15.9345 22.691 15.968 23.3582 16.0333 24.016H23.0874C22.9868 23.3641 22.9345 22.6961 22.9345 22.016C22.9345 14.8363 28.7548 9.01599 35.9345 9.01599V5.01599C35.9345 3.901 35.5696 2.87124 34.9526 2.03968Z" fill="#1C61E7"/>
<path d="M35.9345 15.016C32.0686 15.016 28.9345 18.15 28.9345 22.016C28.9345 22.711 29.0358 23.3823 29.2244 24.016H30.9345C33.696 24.016 35.9345 21.7774 35.9345 19.016V15.016Z" fill="#1C61E7"/>
<path d="M48.7506 23.68L41.9346 1.28H46.8626L50.5106 13.792C50.6599 14.24 50.7879 14.7307 50.8946 15.264C51.0367 15.8325 51.2207 16.9847 51.2207 16.9847C51.2207 16.9847 51.4661 15.8149 51.5986 15.232C51.7266 14.7413 51.8759 14.2507 52.0466 13.76L55.5666 4.512H59.5346L62.9906 13.76C63.2466 14.4 63.4492 15.0187 63.5986 15.616C63.7108 15.9946 63.8936 16.738 63.8936 16.738C63.9762 16.2015 64.0567 15.6662 64.1746 15.136C64.2599 14.7307 64.3879 14.2613 64.5586 13.728L68.1746 1.28H73.0386L66.1586 23.68H62.6066L57.3481 11.0961L52.4306 23.68H48.7506Z" fill="#333333"/>
<path d="M81.7666 24C80.0386 24 78.4919 23.6267 77.1266 22.88C75.7826 22.112 74.7159 21.0667 73.9266 19.744C73.1586 18.4213 72.7746 16.9067 72.7746 15.2C72.7746 13.4933 73.1586 11.9893 73.9266 10.688C74.7159 9.36533 75.7826 8.32 77.1266 7.552C78.4919 6.784 80.0386 6.4 81.7666 6.4C83.4732 6.4 84.9986 6.784 86.3426 7.552C87.7079 8.32 88.7746 9.36533 89.5426 10.688C90.3106 11.9893 90.6946 13.4933 90.6946 15.2C90.6946 16.9067 90.3106 18.4213 89.5426 19.744C88.7746 21.0667 87.7079 22.112 86.3426 22.88C84.9986 23.6267 83.4732 24 81.7666 24ZM81.7666 20.032C82.5986 20.032 83.3452 19.8293 84.0066 19.424C84.6679 18.9973 85.1799 18.4213 85.5426 17.696C85.9266 16.9493 86.1186 16.1173 86.1186 15.2C86.1186 14.2613 85.9266 13.4293 85.5426 12.704C85.1799 11.9573 84.6679 11.3813 84.0066 10.976C83.3452 10.5493 82.5986 10.336 81.7666 10.336C80.9132 10.336 80.1559 10.5493 79.4946 10.976C78.8332 11.4027 78.3106 11.9787 77.9266 12.704C77.5426 13.4293 77.3612 14.2613 77.3826 15.2C77.3612 16.1173 77.5426 16.9493 77.9266 17.696C78.3106 18.4213 78.8332 18.9973 79.4946 19.424C80.1559 19.8293 80.9132 20.032 81.7666 20.032Z" fill="#333333"/>
<path d="M101.025 24C99.2973 24 97.7507 23.6267 96.3853 22.88C95.0413 22.112 93.9747 21.0667 93.1853 19.744C92.4173 18.4213 92.0333 16.9067 92.0333 15.2C92.0333 13.4933 92.4173 11.9893 93.1853 10.688C93.9747 9.36533 95.0413 8.32 96.3853 7.552C97.7507 6.784 99.2973 6.4 101.025 6.4C102.732 6.4 104.257 6.784 105.601 7.552C106.967 8.32 108.033 9.36533 108.801 10.688C109.569 11.9893 109.953 13.4933 109.953 15.2C109.953 16.9067 109.569 18.4213 108.801 19.744C108.033 21.0667 106.967 22.112 105.601 22.88C104.257 23.6267 102.732 24 101.025 24ZM101.025 20.032C101.857 20.032 102.604 19.8293 103.265 19.424C103.927 18.9973 104.439 18.4213 104.801 17.696C105.185 16.9493 105.377 16.1173 105.377 15.2C105.377 14.2613 105.185 13.4293 104.801 12.704C104.439 11.9573 103.927 11.3813 103.265 10.976C102.604 10.5493 101.857 10.336 101.025 10.336C100.172 10.336 99.4147 10.5493 98.7533 10.976C98.092 11.4027 97.5693 11.9787 97.1853 12.704C96.8013 13.4293 96.62 14.2613 96.6413 15.2C96.62 16.1173 96.8013 16.9493 97.1853 17.696C97.5693 18.4213 98.092 18.9973 98.7533 19.424C99.4147 19.8293 100.172 20.032 101.025 20.032Z" fill="#333333"/>
<path d="M119.036 24C117.564 24 116.241 23.6267 115.068 22.88C113.895 22.112 112.967 21.0773 112.284 19.776C111.623 18.4533 111.292 16.928 111.292 15.2C111.292 13.5147 111.623 12.0107 112.284 10.688C112.967 9.36533 113.884 8.32 115.036 7.552C116.209 6.784 117.543 6.4 119.036 6.4C119.825 6.4 120.583 6.528 121.308 6.784C122.055 7.01867 122.716 7.34933 123.292 7.776C123.628 8.01581 124.188 8.54597 124.188 8.54597V0H128.732V23.68H124.444L124.347 21.7049C124.347 21.7049 123.654 22.4299 123.196 22.752C122.641 23.136 122.001 23.4453 121.276 23.68C120.572 23.8933 119.825 24 119.036 24ZM120.06 20.224C120.913 20.224 121.66 20.0107 122.3 19.584C122.94 19.1573 123.441 18.5707 123.804 17.824C124.167 17.0773 124.348 16.2027 124.348 15.2C124.348 14.2187 124.167 13.3547 123.804 12.608C123.441 11.84 122.94 11.2533 122.3 10.848C121.66 10.4213 120.913 10.208 120.06 10.208C119.207 10.208 118.46 10.4213 117.82 10.848C117.201 11.2533 116.711 11.84 116.348 12.608C116.007 13.3547 115.836 14.2187 115.836 15.2C115.836 16.2027 116.007 17.0773 116.348 17.824C116.711 18.5707 117.201 19.1573 117.82 19.584C118.46 20.0107 119.207 20.224 120.06 20.224Z" fill="#333333"/>
<path d="M132.842 23.68V1.28H137.226L143.946 12.2169L150.762 1.28H154.954V23.68H150.25V16C150.25 14.08 150.293 12.352 150.378 10.816C150.415 10.2841 150.512 9.22411 150.512 9.22411L144.906 17.92H142.794L137.285 9.2592C137.285 9.2592 137.36 10.1863 137.386 10.656C137.493 12.1493 137.546 13.9307 137.546 16V23.68H132.842Z" fill="#333333"/>
<path d="M165.516 24C164.108 24 162.838 23.616 161.708 22.848C160.577 22.08 159.681 21.0347 159.02 19.712C158.358 18.3893 158.028 16.8747 158.028 15.168C158.028 13.4613 158.358 11.9573 159.02 10.656C159.702 9.33333 160.62 8.29867 161.772 7.552C162.924 6.784 164.236 6.4 165.708 6.4C166.54 6.4 167.297 6.528 167.98 6.784C168.684 7.01867 169.292 7.34933 169.804 7.776C170.246 8.13026 170.956 8.97115 170.956 8.97115V6.752H175.468V23.68H170.892V21.4683C170.892 21.4683 170.127 22.2977 169.644 22.656C169.089 23.0613 168.46 23.392 167.756 23.648C167.052 23.8827 166.305 24 165.516 24ZM166.764 20.064C167.617 20.064 168.364 19.8613 169.004 19.456C169.644 19.0507 170.134 18.4853 170.476 17.76C170.838 17.0133 171.02 16.1493 171.02 15.168C171.02 14.208 170.838 13.3653 170.476 12.64C170.134 11.9147 169.644 11.3493 169.004 10.944C168.364 10.5173 167.617 10.304 166.764 10.304C165.932 10.304 165.196 10.5173 164.556 10.944C163.937 11.3493 163.446 11.9147 163.084 12.64C162.721 13.3653 162.54 14.208 162.54 15.168C162.54 16.1493 162.721 17.0133 163.084 17.76C163.446 18.4853 163.937 19.0507 164.556 19.456C165.196 19.8613 165.932 20.064 166.764 20.064Z" fill="#333333"/>
<path d="M179.063 23.68V6.752H183.447L183.528 9.49651C183.528 9.49651 183.88 8.95714 184.087 8.704C184.663 7.97867 185.335 7.41333 186.103 7.008C186.893 6.60267 187.714 6.4 188.567 6.4C188.93 6.4 189.282 6.432 189.623 6.496C189.965 6.56 190.253 6.63467 190.487 6.72L189.271 11.712C189.015 11.584 188.706 11.4773 188.343 11.392C187.981 11.2853 187.607 11.232 187.223 11.232C186.711 11.232 186.231 11.328 185.783 11.52C185.357 11.6907 184.983 11.9467 184.663 12.288C184.343 12.608 184.087 12.992 183.895 13.44C183.725 13.888 183.639 14.3787 183.639 14.912V23.68H179.063Z" fill="#333333"/>
<path d="M206.089 24.032C205.257 24.032 204.617 23.7973 204.169 23.328C203.721 22.8587 203.497 22.1867 203.497 21.312C203.497 20.5227 203.732 19.8827 204.201 19.392C204.692 18.88 205.321 18.624 206.089 18.624C206.9 18.624 207.529 18.8587 207.977 19.328C208.425 19.7973 208.649 20.4587 208.649 21.312C208.649 22.1227 208.415 22.784 207.945 23.296C207.476 23.7867 206.857 24.032 206.089 24.032Z" fill="#333333"/>
<path d="M194.392 2.464H198.936V6.752H202.392V10.816H198.936V23.68H194.392V10.816H191.224V6.752H194.392V2.464Z" fill="#333333"/>
</svg>
